<svg xmlns="http://www.w3.org/2000/svg">
    <line x2="300" y2="100" stroke="black" />
    <rect width="100" height="100" />
    <rect x="10" y="120" width="100" height="100" />
    <rect x="10" y="240" width="300" height="170" rx="90" ry="90" stroke="darkseagreen" stroke-width="10"
        fill="lightgray" fill-opacity="0.6" />
    <circle cx="110" cy="530" r="100" stroke="darkseagreen" stroke-width="10" fill="grey" fill-opacity="0.6" />
    <ellipse cx="110" cy="685" rx="70" ry="35" stroke="darkseagreen" stroke-width="0.8" fill="lightgray"
        fill-opacity="0.6" />
    <polyline points="200,740 240,910 310,910 350,740" fill="lightcyan" fill-opacity="0.7" stroke="darkviolet"
        stroke-width="25" stroke-opacity="0.2" />
    <polyline points="20,740 60,910 130,910 170,740" fill="lightcyan" fill-opacity="0.7" stroke="darkviolet"
        stroke-width="25" stroke-linecap="round" stroke-opacity="0.2" />
    <polygon points="100,940 115,1010 150,1040 115,1070 100,1140, 85,1070 50,1040, 85,1010" fill="darkorange"
        fill-opacity="0.5" stroke="papayawhip" stroke-width="20" stroke-opacity="0.7" stroke-linejoin="miter" />
    <polygon points="250,940 265,1010 300,1040 265,1070 250,1140, 235,1070 200,1040, 235,1010" fill="darkorange"
        fill-opacity="0.5" stroke="papayawhip" stroke-width="20" stroke-opacity="0.7" stroke-linejoin="round" />
</svg>